# xmcd CD database file
#
# Track frame offsets:
#	150
#	19815
#	45519
#	59697
#	71085
#	91484
#	113087
#	135864
#	153067
#	173126
#	191390
#	210694
#	232219
#	254716
#	273000
#	294902
#	311035
#
# Disc length: 4430 seconds
#
# Revision: 0
# Processed by: cddbd v1.5.2PL0 Copyright (c) Steve Scherf et al.
# Submitted via: CDex 1.70beta2
#
DISCID=f0114c11
DTITLE=Varius Artist - Montecarlo Nights Nouveau Beat 5 CD2
DYEAR=2010
DGENRE=New Age
TTITLE0=Happy Dreamer (Remastered) - Laid Back
TTITLE1=Bem Ma Mi - Anane
TTITLE2=Lush Life - Nat King Cole
TTITLE3=The Modjo Radio Gang (Radio Version) - Parov Stelar
TTITLE4=Staying For Good (Suonho In The Light Groove Remix) - Papik
TTITLE5=Hold On (Scopes Luxurious Dub Mix) (Ft Bianca Hutchinson) - Physics
TTITLE6=You Don't Fool Me 2008 (Tango Cafè Mix) - Indigo Sun
TTITLE7=Nightlite (Ft Bajka) - Bonobo
TTITLE8=How Deep Is Your Love - Brazilian Love Affair
TTITLE9=Something's Changing - Wet Cookies
TTITLE10=Panamericana - Gotan Project
TTITLE11=Kira Neris Theme - Kira Neris
TTITLE12=Change (Bring It) (Souldynamic Saxstrong Mix) - Beaten Soul
TTITLE13=Surrender (Housesellers Remix) - Ricky Rinaldi
TTITLE14=Waves Of Change - Samantha James
TTITLE15=Natty Dread - Jaqee
TTITLE16=Shameless (Ft. Bryan Ferry) - Groove Armada
EXTD=YEAR: 2010
EXTT0=
EXTT1=
EXTT2=
EXTT3=
EXTT4=
EXTT5=
EXTT6=
EXTT7=
EXTT8=
EXTT9=
EXTT10=
EXTT11=
EXTT12=
EXTT13=
EXTT14=
EXTT15=
EXTT16=
PLAYORDER=
